# xmcd
#
# Track frame offsets:
#	150
#	11131
#	25755
#	39342
#	58183
#	71977
#	83126
#	95677
#	109114
#	122940
#	135194
#	141904
#	151568
#	164724
#	173309
#	184579
#	193644
#	204718
#	216887
#	230694
#
# Disc length: 3232 seconds
#
# Revision: 2
# Processed by: cddbd v1.5.2PL0 Copyright (c) Steve Scherf et al.
# Submitted via: audiograbber 1.83.01
#
DISCID=180c9e14
DTITLE=Compilation - Un air de guinguette - CD 4
DYEAR=2005
DGENRE=Dance
TTITLE0=Zinzin - A la Privat
TTITLE1=Sidney Bechet - Petite fleur
TTITLE2=Colette Renard - Paris canaille
TTITLE3=Georgette Plana - Du gris
TTITLE4=Roger Eggermont - No verdad
TTITLE5=Mouloudji - Le père l'absinthe
TTITLE6=Aimable - Le dénicheur
TTITLE7=Nicolas Deflandre - Refrain des montagnes
TTITLE8=Vincent Cioti - Le bal à Zézette
TTITLE9=Armand Lassagne - La migliavacca
TTITLE10=Diane May - Les guincheurs
TTITLE11=Edouard Duleu - Virtuosité musette
TTITLE12=Jean-Loup Marconi - Rue des amants
TTITLE13=Daniel Denécheau - Il séduit
TTITLE14=Christian Toucas - Au vieux Sébasto
TTITLE15=Hubert Rostaing - Moonlit waltz
TTITLE16=Aimable - Musette à tout va
TTITLE17=Dominic Vizio et son orchestre - El fuego
TTITLE18=Gremilda Perez - Borelito
TTITLE19=Mathieu William et son orchestre - From madison
EXTD=
EXTT0=
EXTT1=
EXTT2=
EXTT3=
EXTT4=
EXTT5=
EXTT6=
EXTT7=
EXTT8=
EXTT9=
EXTT10=
EXTT11=
EXTT12=
EXTT13=
EXTT14=
EXTT15=
EXTT16=
EXTT17=
EXTT18=
EXTT19=
PLAYORDER=
